<svg xmlns="http://www.w3.org/2000/svg" width="100" height="100" viewBox="0 0 100 100">
  <g id="favicon" fill="none" fill-rule="evenodd" stroke="none" stroke-width="1">
    <g id="Group">
      <circle id="Oval" cx="50" cy="50" r="50" fill="#282828"/>
      <path id="Combined-Shape" fill="#FFF" fill-rule="nonzero" d="M50.0132709,25.6101172 C52.4212422,25.6101172 58.0707133,26.0805377 61.5900559,29.0912291 C65.2020129,32.1019205 65.3872414,36.9002098 65.7576986,40.4754058 C65.9334767,41.784903 65.7385662,45.768058 65.5716466,49.8757122 L65.5397961,50.6716121 C65.4563646,52.7945067 65.3872414,54.9067556 65.3872414,56.657872 C65.3872414,60.0789647 65.3118616,65.3378858 65.3053633,68.9418372 L65.3058532,70.0482465 C65.310485,71.5209512 65.3329503,72.5645744 65.3872414,72.8403381 C65.5303726,73.4946503 64.8992943,73.5871793 64.305921,73.5954408 L64.0993828,73.5956352 C63.9982186,73.5947605 63.9012032,73.593011 63.8127987,73.593011 C63.495264,73.5526892 62.9565891,73.546929 62.3936131,73.5461061 L61.829827,73.5458318 C61.2725213,73.5450089 60.7565274,73.5392486 60.4786846,73.4989269 C59.9229989,73.4048428 58.626399,73.3107587 58.7190133,72.5580858 C58.8116275,71.7113289 58.7190133,70.3941514 58.7190133,70.3941514 L58.6392853,70.3947781 C58.3248902,70.3971731 57.1079615,70.4057458 55.4763196,70.4084094 L54.9177483,70.4090619 C54.631452,70.4092621 54.3351415,70.4092608 54.0310752,70.4090022 L53.4132707,70.4081251 C52.8909314,70.4070805 52.3512306,70.4052173 51.8046239,70.4022765 L51.1460502,70.3982135 L51.1460502,70.3982135 L50.4848619,70.3930165 C47.8402328,70.3698276 45.229212,70.3170333 43.8081142,70.2059832 C40.1961572,69.8296468 40.103543,70.2059832 37.3251145,69.2651421 C34.5466861,68.4183852 31.5830292,66.6307872 31.0273435,63.7141799 C30.4716578,60.7034885 31.0273435,57.1282925 33.2500862,54.6821058 C34.824529,52.9885919 36.7694289,51.7654985 40.8444572,51.4832462 C42.3007832,51.3564372 46.1125582,51.2866003 49.8693348,51.2481394 L50.5951188,51.2410803 C53.3696956,51.2154695 56.0283926,51.2062212 57.5867545,51.2028815 L57.967676,51.2021374 C58.0267871,51.2020335 58.0836564,51.201939 58.1382029,51.2018531 L58.6760896,51.2011794 C58.7107594,51.2011485 58.7427828,51.2011227 58.7720788,51.2011013 L58.9968561,51.2009939 L58.9968561,51.2009939 C58.9968561,51.2009939 58.9981424,51.2036073 59.0005006,51.2066019 C59.0447354,51.2383807 59.1820847,51.1461115 59.1820847,48.4725548 C59.1820847,45.4618634 60.293456,38.3114714 58.626399,34.8303595 C56.9593419,31.5374158 53.7178421,30.784743 50.4763423,30.8788271 C47.9757568,30.8788271 45.4751712,31.0669953 44.085957,32.1019205 C42.6041285,33.1368456 41.9558286,34.8303595 41.6779857,37.088378 C41.4001429,39.1582284 41.5853714,40.9458264 41.8632143,42.3570879 C41.9558286,43.2038449 40.6592286,44.0506018 40.6592286,44.0506018 C38.8995573,44.4269383 37.2325003,44.0506018 36.491586,44.0506018 C35.5654432,43.9565177 35.0097575,42.2630038 35.0097575,42.2630038 L35.0098322,42.2264452 C35.010914,41.878052 35.0276829,39.1127038 35.2876004,37.088378 C35.4728289,34.9244436 35.4728289,32.8545933 37.6029574,29.5616496 C40.0109287,25.7982854 47.6052996,25.5160331 50.0132709,25.6101172 Z M50.2301454,55.5968183 L49.1693911,55.5966593 C46.3692684,55.6029464 43.8490146,55.6655176 42.8428057,55.8466451 L42.4602858,55.9121927 C42.2048872,55.9555237 41.9490865,55.9985399 41.6950952,56.04376 L41.3157417,56.1135581 C38.988173,56.5580555 36.910028,57.2988847 36.8315746,60.3295493 C36.6407419,63.9158726 42.3657238,64.2147329 44.9419657,64.314353 C46.2631154,64.4165275 49.3909656,64.5187019 52.5110947,64.5671357 L53.4450874,64.5799999 C56.0804621,64.6115759 58.5791664,64.6004415 59.8269189,64.5135932 C59.6360862,62.0230909 59.7315025,63.5173923 59.7315025,62.0230909 L59.8269189,55.747025 C59.8269189,55.747025 55.8287848,55.6349638 51.660301,55.6039772 L50.9447493,55.5994955 C50.706152,55.5982903 50.4677126,55.5973859 50.2301454,55.5968183 Z" transform="rotate(-2 48.327 49.596)"/>
    </g>
  </g>
</svg>
