<?xml version="1.0" encoding="UTF-8" standalone="no"?>
<svg width="112px" height="191px" viewBox="0 0 112 191" version="1.1" xmlns="http://www.w3.org/2000/svg" xmlns:xlink="http://www.w3.org/1999/xlink">
    <g id="logo" stroke="none" stroke-width="1" fill="none" fill-rule="evenodd">
        <path d="M111.4,184.4 C111.4,184.4 110.2,189.6 107.2,189.6 C104.4,189.6 101.6,189.8 99.8,190.2 C98,190.4 96.4,188.6 96.4,184.4 C96.4,180.4 96.4,153.6 96.6,142.8 C97,132 97.4,105 97.2,95.4 C96.8,85.6 96,75.2 96,75.2 C96,75.2 70.6,74.4 63.4,74.4 C54,74.4 23.4,76.8 13.6,70.8 C4.6,65.2 0.6,59.4 1.77635684e-15,41.2 C-0.4,26.4 5.8,18.8 15.2,13.8 C26,8.2 53,11.6 64,11.4 C75,11 87,10.6 96,11.4 C96.4,7.8 96.4,4.6 96.4,2.6 C96.4,0.6 99.8,-0.2 101.2,0.2 C102.2,0.4 106.6,0.2 108,0.2 C109.6,0.2 110.6,0.8 110.6,2.4 L110.6,68.2 C110.6,80 112.2,127.2 111.4,136.2 C110.8,145.2 111.2,170.4 111.4,184.4 Z M29,127.4 C25.2,128.2 21.6,127.4 20,127.4 C18,127.2 16.8,123.6 16.8,123.6 C16.8,123.6 16.8,117.2 17.4,112.6 C17.8,108 17.8,103.6 22.4,96.6 C27.6,88.6 44,88 49.2,88.2 C54.4,88.2 66.6,89.2 74.2,95.6 C82,102 82.4,112.2 83.2,119.8 C83.8,124.2 82.4,142.8 82.4,154.2 C82.4,165.6 82,186.6 82.4,188.6 C82.8,190.4 80.4,190.2 79,190.2 C77.4,190 73.2,190.2 71.8,190 C70.6,189.8 67.8,189.6 68,188 C68.2,186.2 68,183.4 68,183.4 C68,183.4 43.6,183.6 35.8,183 C28,182.2 27.8,183 21.8,181 C15.8,179.2 9.4,175.4 8.2,169.2 C7,162.8 8.2,155.2 13,150 C16.4,146.4 20.6,143.8 29.4,143.2 C36.4,142.6 68.6,142.6 68.6,142.6 C68.6,142.6 69,143.4 69,136.8 C69,130.4 71.4,115.2 67.8,107.8 C64.2,100.8 57.2,99.2 50.2,99.4 C44.8,99.4 39.4,99.8 36.4,102 C33.2,104.2 31.8,107.8 31.2,112.6 C30.6,117 31,120.8 31.6,123.8 C31.8,125.6 29,127.4 29,127.4 Z M96.6,59 C96.6,59 98,44.4 97.6,26.4 C90.8,25.4 36.8,22.6 27.4,24.6 C18,26.6 14.8,32.8 14.8,42.4 C14.8,51.8 18.8,57 23.8,58.6 C30,60.6 91,62.8 96.6,59 Z M68.2,154.2 C68.2,154.2 38.4,153.4 32.6,154.4 C26.6,155.4 20.2,156 20,163.4 C19.6,170.6 31.6,171.2 37,171.4 C42.4,171.8 62.2,172.2 68.2,171.8 C67.8,166.8 68,169.8 68,166.8 Z M68.2,154.2" id="B" fill="#282828"></path>
    </g>
</svg>